<svg viewBox="0 0 300 150" xmlns="http://www.w3.org/2000/svg" role="img" aria-label="State of Vice">
<defs>
<linearGradient id="gv" x1="0" y1="0" x2=".4" y2="1">
<stop offset="0" stop-color="#b06ef7"/><stop offset=".45" stop-color="#ff2e80"/><stop offset="1" stop-color="#ff9a45"/>
</linearGradient>
<clipPath id="wV"><path d="M0 50 L20 50 L30 102 L40 50 L60 50 L38 130 L22 130 Z"/></clipPath>
</defs>

<line x1="32" y1="25" x2="92" y2="25" stroke="#3a4054" stroke-width="1"/>
<line x1="208" y1="25" x2="268" y2="25" stroke="#3a4054" stroke-width="1"/>
<text x="150" y="31" text-anchor="middle" font-family="Inter, Helvetica, Arial, sans-serif" font-size="16" font-weight="700" letter-spacing="9" fill="#8e94a8">STATE OF</text>

<g transform="translate(30,0)">
  <path d="M0 50 L20 50 L30 102 L40 50 L60 50 L38 130 L22 130 Z" fill="url(#gv)"/>
  <g clip-path="url(#wV)" fill="#07080d" transform="translate(-11.4,25.3) scale(1.9)">
    <path d="M22 55 C21 45 21 37 24 29 L27 30 C24 38 24 46 26 55 Z"/>
    <path d="M25 31 C18 26 11 25 6 28 C13 21 22 23 27 29 Z"/>
    <path d="M26 30 C23 23 17 18 10 18 C18 14 26 20 28 27 Z"/>
    <path d="M27 29 C28 22 33 16 40 15 C32 12 25 19 24 26 Z"/>
    <path d="M27 31 C34 26 41 26 46 30 C40 22 30 24 25 29 Z"/>
  </g>
  <path d="M76 50 h20 v80 h-20 z" fill="url(#gv)"/>
  <path d="M112 50 h56 v20 h-36 v40 h36 v20 h-56 z" fill="#eef0f6"/>
  <path d="M184 50 h56 v18 h-36 v12 h32 v18 h-32 v14 h36 v18 h-56 z" fill="#eef0f6"/>
</g>
</svg>
